<?xml version="1.0" encoding="UTF-8"?>
<!-- Generator: Adobe Illustrator 13.0.0, SVG Export Plug-In . SVG Version: 6.00 Build 14948)  -->
<!DOCTYPE svg PUBLIC "-//W3C//DTD SVG 1.1//EN" "http://www.w3.org/Graphics/SVG/1.1/DTD/svg11.dtd">
<svg version="1.1" id="Layer_1" xmlns="http://www.w3.org/2000/svg" xmlns:xlink="http://www.w3.org/1999/xlink" x="0px" y="0px" width="175.748px" height="113.102px" viewBox="0 0 175.748 113.102" enable-background="new 0 0 175.748 113.102" xml:space="preserve">
<g transform="translate(8.76367, 40.4473)">
	<path fill="#00628B" d="M16.484,72.818l7.139-35.978H35.33l-7.139,35.978H16.484z M51.748,61.111h7.425l-1.999-13.276   L51.748,61.111z M35.33,72.818L53.033,36.84h11.564l7.139,35.978H61.028l-0.714-4.282H48.894l-1.856,4.282H35.33z M82.443,72.818   l4.141-26.983H76.305l1.713-9.137h31.408l-1.712,9.137h-9.708l-3.999,26.983H82.443z M121.705,61.111h7.424l-1.857-13.276   L121.705,61.111z M105.43,72.818L122.99,36.84h11.564l7.28,35.978h-10.994l-0.427-4.282H118.85l-1.856,4.282H105.43z    M167.248-3.849h-54.824c-1.999,10.137-8.994,18.561-22.984,24.414c1.57,4.854,6.994,9.279,12.563,9.279h29.838   c4.569,0,8.138-3.854,9.566-6.996h-30.269c-1.854-0.285-1.854-1.713-0.142-1.998h29.839c3.854,0,7.281-3.284,9.28-6.853h-34.55   c-1.856-0.286-1.856-1.714,0-1.999H150.4c3.57,0,6.711-4.141,7.996-6.854h-38.263c-1.856-0.285-1.856-1.998,0-2.142h38.976   C162.251,3.003,165.105-0.28,167.248-3.849z M-8.5-3.849h54.823c1.999,10.137,8.994,18.561,22.985,24.414   c-1.57,4.854-6.995,9.279-12.563,9.279H26.907c-4.569,0-8.139-3.854-9.565-6.996h30.267c1.855-0.285,1.855-1.713,0.143-1.998   H17.912c-3.854,0-7.281-3.284-9.279-6.853h34.55c1.855-0.286,1.855-1.714,0-1.999H8.347c-3.569,0-6.71-4.141-7.995-6.854h38.262   c1.856-0.285,1.856-1.998,0-2.142H-0.362C-3.503,3.003-6.358-0.28-8.5-3.849z M61.6-34.116c1.999,1.713,4.283,3.283,6.71,4.283   c1.999-4.141,4.997-7.567,8.28-10.565C71.022-39.827,65.883-37.685,61.6-34.116z M51.892-13.986h12.277   c0.143-5.14,1.285-9.565,3.284-14.134c-2.713-1.143-5.14-2.713-7.424-4.568C55.032-27.691,52.177-21.124,51.892-13.986z    M78.446-25.549v11.563H66.168c0.143-4.568,1.143-9.137,3.141-13.42C72.164-26.263,75.306-25.692,78.446-25.549z M97.148-34.116   c-1.998,1.713-4.283,3.283-6.71,4.283c-2.142-4.141-4.853-7.425-8.28-10.565C87.727-39.827,92.865-37.685,97.148-34.116z    M106.857-13.986H94.579c-0.144-4.997-1.285-9.565-3.141-14.134c2.568-1.143,4.995-2.713,7.279-4.568   C103.859-27.406,106.57-20.981,106.857-13.986z M80.444-25.549v11.563H92.58c0-4.711-1.142-9.137-3.141-13.42   C86.584-26.263,83.443-25.692,80.444-25.549z M61.6,8c1.999-1.57,4.283-3.283,6.71-4.14c2.142,4.14,4.854,7.566,8.28,10.564   C71.022,13.711,65.883,11.712,61.6,8z M51.892-11.987h12.277c0.143,4.997,1.285,9.423,3.284,14.134   c-2.713,1.143-5.14,2.713-7.424,4.569C55.175,1.719,52.177-4.848,51.892-11.987z M78.446-0.422v-11.564H66.168   c0.143,4.568,1.143,9.28,3.141,13.277C72.164,0.291,75.306-0.422,78.446-0.422z M97.148,8c-1.855-1.57-4.283-3.141-6.71-4.14   c-2.142,4.14-4.853,7.566-8.28,10.564C87.727,13.711,92.865,11.712,97.148,8z M106.857-11.987H94.579   c-0.144,4.997-1.144,9.565-3.141,14.134c2.568,1.143,4.995,2.713,7.279,4.569C103.573,1.719,106.57-4.991,106.857-11.987z    M80.444-0.422v-11.564H92.58c0,4.568-1.142,9.137-3.141,13.277C86.727,0.291,83.443-0.422,80.444-0.422z M78.446-39.255   c-3.284,2.569-6.282,6.281-8.281,10.137c2.713,0.856,5.426,1.57,8.281,1.57V-39.255z M80.444-39.255   c3.142,2.569,6.14,6.281,8.14,10.137c-2.714,0.999-5.427,1.57-8.14,1.57V-39.255z M78.446,13.284   c-3.284-2.57-6.282-6.282-8.281-10.137c2.713-1,5.426-1.57,8.281-1.57V13.284z M80.444,13.426c3.142-2.713,6.14-6.425,8.14-10.279   c-2.714-0.856-5.427-1.57-8.14-1.57V13.426z"/>
</g>
</svg>