<?xml version="1.0" encoding="UTF-8" standalone="no"?>
<!-- Created with Inkscape (http://www.inkscape.org/) -->
<svg xmlns:dc="http://purl.org/dc/elements/1.1/" xmlns:cc="http://web.resource.org/cc/" xmlns:rdf="http://www.w3.org/1999/02/22-rdf-syntax-ns#" xmlns:svg="http://www.w3.org/2000/svg" xmlns="http://www.w3.org/2000/svg" xmlns:xlink="http://www.w3.org/1999/xlink" xmlns:sodipodi="http://inkscape.sourceforge.net/DTD/sodipodi-0.dtd" xmlns:inkscape="http://www.inkscape.org/namespaces/inkscape" height="200" id="svg1" inkscape:version="0.43+devel" sodipodi:docbase="C:\Documents and Settings\Admin\My Documents" sodipodi:docname="Red versus blue swords.svg" sodipodi:version="0.32" width="200" version="1.0">
  <metadata id="metadata3">
    <rdf:RDF>
      <cc:Work rdf:about="">
        <dc:title>Sword</dc:title>
        <dc:description/>
        <dc:subject>
          <rdf:Bag>
            <rdf:li>weapon</rdf:li>
            <rdf:li/>
            <rdf:li>tool</rdf:li>
          </rdf:Bag>
        </dc:subject>
        <dc:publisher>
          <cc:Agent rdf:about="http://www.openclipart.org">
            <dc:title>Nicu Buculei</dc:title>
          </cc:Agent>
        </dc:publisher>
        <dc:creator>
          <cc:Agent>
            <dc:title>Nicu Buculei</dc:title>
          </cc:Agent>
        </dc:creator>
        <dc:rights>
          <cc:Agent>
            <dc:title>Nicu Buculei</dc:title>
          </cc:Agent>
        </dc:rights>
        <dc:date/>
        <dc:format>image/svg+xml</dc:format>
        <dc:type rdf:resource="http://purl.org/dc/dcmitype/StillImage"/>
        <cc:license rdf:resource="http://web.resource.org/cc/PublicDomain"/>
        <dc:language>en</dc:language>
      </cc:Work>
      <cc:License rdf:about="http://web.resource.org/cc/PublicDomain">
        <cc:permits rdf:resource="http://web.resource.org/cc/Reproduction"/>
        <cc:permits rdf:resource="http://web.resource.org/cc/Distribution"/>
        <cc:permits rdf:resource="http://web.resource.org/cc/DerivativeWorks"/>
      </cc:License>
    </rdf:RDF>
  </metadata>
  <defs id="defs3">
    <linearGradient id="linearGradient10076">
      <stop id="stop10078" offset="0" style="stop-color:#21008d;stop-opacity:1;"/>
      <stop id="stop10080" offset="1" style="stop-color:#7f58ff;stop-opacity:1;"/>
    </linearGradient>
    <linearGradient id="linearGradient4795">
      <stop style="stop-color:#8d0000;stop-opacity:1;" offset="0" id="stop4797"/>
      <stop style="stop-color:#ff5858;stop-opacity:1;" offset="1" id="stop4799"/>
    </linearGradient>
    <linearGradient id="linearGradient3916">
      <stop style="stop-color:#ff0101;stop-opacity:0.09803922;" offset="0" id="stop3918"/>
      <stop style="stop-color:#ffffff;stop-opacity:0.0000000;" offset="1.0000000" id="stop3920"/>
    </linearGradient>
    <linearGradient id="linearGradient2199">
      <stop id="stop2200" offset="0.0000000" style="stop-color:#0163ff;stop-opacity:0.10112359;"/>
      <stop id="stop2201" offset="1.0000000" style="stop-color:#ffffff;stop-opacity:0.0000000;"/>
    </linearGradient>
    <linearGradient id="linearGradient2180">
      <stop id="stop2181" offset="0.0000000" style="stop-color:#b0b0b0;stop-opacity:1.0000000;"/>
      <stop id="stop2182" offset="1.0000000" style="stop-color:#e8e8e9;stop-opacity:1.0000000;"/>
    </linearGradient>
    <linearGradient id="linearGradient2183" inkscape:collect="always" x1="666.22595" x2="692.38379" xlink:href="#linearGradient2180" y1="107.83209" y2="17.732885" gradientTransform="scale(0.33201,3.01196)" gradientUnits="userSpaceOnUse"/>
    <linearGradient id="linearGradient2185" inkscape:collect="always" x1="676.04828" x2="571.41693" xlink:href="#linearGradient2180" y1="103.76309" y2="34.008873" gradientTransform="scale(0.33201,3.01196)" gradientUnits="userSpaceOnUse"/>
    <linearGradient id="linearGradient2186" inkscape:collect="always" x1="130.54056" x2="130.54056" xlink:href="#linearGradient2180" y1="786.66321" y2="822.54553" gradientTransform="scale(1.693961,0.590332)" gradientUnits="userSpaceOnUse"/>
    <linearGradient id="linearGradient2188" inkscape:collect="always" x1="143.7982" x2="106.52049" xlink:href="#linearGradient2180" y1="521.99512" y2="522.7182" gradientTransform="scale(1.504148,0.664828)" gradientUnits="userSpaceOnUse"/>
    <linearGradient id="linearGradient2190" inkscape:collect="always" x1="145.81898" x2="193.42752" xlink:href="#linearGradient2180" y1="537.13806" y2="541.28821" gradientTransform="scale(1.509173,0.662615)" gradientUnits="userSpaceOnUse"/>
    <linearGradient id="linearGradient2192" inkscape:collect="always" x1="147.87256" x2="118.72225" xlink:href="#linearGradient2180" y1="687.35699" y2="673.50146" gradientTransform="scale(1.462718,0.683659)" gradientUnits="userSpaceOnUse"/>
    <linearGradient id="linearGradient2194" inkscape:collect="always" x1="151.10228" x2="177.23729" xlink:href="#linearGradient2180" y1="697.50122" y2="685.19318" gradientTransform="scale(1.49453,0.669107)" gradientUnits="userSpaceOnUse"/>
    <linearGradient id="linearGradient2202" inkscape:collect="always" x1="423.39383" x2="556.42035" xlink:href="#linearGradient2199" y1="10.073052" y2="155.44394" gradientTransform="scale(0.463823,2.155994)" gradientUnits="userSpaceOnUse"/>
    <linearGradient inkscape:collect="always" xlink:href="#linearGradient2180" id="linearGradient1400" x1="676.04828" y1="103.76309" x2="571.41693" y2="34.008873" gradientTransform="scale(0.33201,3.01196)" gradientUnits="userSpaceOnUse"/>
    <linearGradient inkscape:collect="always" xlink:href="#linearGradient2180" id="linearGradient1402" x1="130.54056" y1="786.66321" x2="130.54056" y2="822.54553" gradientTransform="scale(1.693961,0.590332)" gradientUnits="userSpaceOnUse"/>
    <linearGradient inkscape:collect="always" xlink:href="#linearGradient2180" id="linearGradient1404" x1="151.10228" y1="697.50122" x2="177.23729" y2="685.19318" gradientTransform="scale(1.49453,0.669107)" gradientUnits="userSpaceOnUse"/>
    <linearGradient inkscape:collect="always" xlink:href="#linearGradient2180" id="linearGradient1406" x1="666.22595" y1="107.83209" x2="692.38379" y2="17.732885" gradientTransform="scale(0.33201,3.01196)" gradientUnits="userSpaceOnUse"/>
    <linearGradient inkscape:collect="always" xlink:href="#linearGradient2199" id="linearGradient1408" x1="423.39383" y1="10.073052" x2="556.42035" y2="155.44394" gradientTransform="scale(0.463823,2.155994)" gradientUnits="userSpaceOnUse"/>
    <linearGradient inkscape:collect="always" xlink:href="#linearGradient2180" id="linearGradient1410" x1="145.81898" y1="537.13806" x2="193.42752" y2="541.28821" gradientTransform="scale(1.509173,0.662615)" gradientUnits="userSpaceOnUse"/>
    <linearGradient inkscape:collect="always" xlink:href="#linearGradient2180" id="linearGradient1412" x1="143.7982" y1="521.99512" x2="106.52049" y2="522.7182" gradientTransform="scale(1.504148,0.664828)" gradientUnits="userSpaceOnUse"/>
    <linearGradient inkscape:collect="always" xlink:href="#linearGradient2180" id="linearGradient1414" x1="147.87256" y1="687.35699" x2="118.72225" y2="673.50146" gradientTransform="scale(1.462718,0.683659)" gradientUnits="userSpaceOnUse"/>
    <linearGradient inkscape:collect="always" xlink:href="#linearGradient4795" id="linearGradient2135" gradientUnits="userSpaceOnUse" gradientTransform="matrix(-0.654996,0.482979,0.258939,0.266888,99.2868,-73.55469)" x1="147.87256" y1="687.35699" x2="118.72225" y2="673.50146"/>
    <linearGradient inkscape:collect="always" xlink:href="#linearGradient4795" id="linearGradient2138" gradientUnits="userSpaceOnUse" gradientTransform="matrix(-0.673548,0.496659,0.251806,0.259537,99.2868,-73.55469)" x1="143.7982" y1="521.99512" x2="106.52049" y2="522.7182"/>
    <linearGradient inkscape:collect="always" xlink:href="#linearGradient4795" id="linearGradient2141" gradientUnits="userSpaceOnUse" gradientTransform="matrix(-0.675799,0.498318,0.250968,0.258673,99.2868,-73.55469)" x1="145.81898" y1="537.13806" x2="193.42752" y2="541.28821"/>
    <linearGradient inkscape:collect="always" xlink:href="#linearGradient4795" id="linearGradient2148" gradientUnits="userSpaceOnUse" gradientTransform="matrix(-0.148672,0.109627,1.140792,1.175815,99.2868,-73.55469)" x1="666.22595" y1="107.83209" x2="692.38379" y2="17.732885"/>
    <linearGradient inkscape:collect="always" xlink:href="#linearGradient4795" id="linearGradient2151" gradientUnits="userSpaceOnUse" gradientTransform="matrix(-0.669242,0.493483,0.253427,0.261207,99.2868,-73.55469)" x1="151.10228" y1="697.50122" x2="177.23729" y2="685.19318"/>
    <linearGradient inkscape:collect="always" xlink:href="#linearGradient4795" id="linearGradient2163" gradientUnits="userSpaceOnUse" gradientTransform="matrix(-0.758546,0.559334,0.223591,0.230455,99.2868,-73.55469)" x1="130.54056" y1="786.66321" x2="130.54056" y2="822.54553"/>
    <linearGradient inkscape:collect="always" xlink:href="#linearGradient4795" id="linearGradient2167" gradientUnits="userSpaceOnUse" gradientTransform="matrix(-0.148672,0.109627,1.140792,1.175815,99.2868,-73.55469)" x1="676.04828" y1="103.76309" x2="571.41693" y2="34.008873"/>
    <linearGradient inkscape:collect="always" xlink:href="#linearGradient10076" id="linearGradient9168" gradientUnits="userSpaceOnUse" gradientTransform="matrix(0.654996,0.482979,-0.258939,0.266888,101.0223,-73.55469)" x1="147.87256" y1="687.35699" x2="118.72225" y2="673.50146"/>
    <linearGradient inkscape:collect="always" xlink:href="#linearGradient10076" id="linearGradient9171" gradientUnits="userSpaceOnUse" gradientTransform="matrix(0.673548,0.496659,-0.251806,0.259537,101.0223,-73.55469)" x1="143.7982" y1="521.99512" x2="106.52049" y2="522.7182"/>
    <linearGradient inkscape:collect="always" xlink:href="#linearGradient10076" id="linearGradient9174" gradientUnits="userSpaceOnUse" gradientTransform="matrix(0.675799,0.498318,-0.250968,0.258673,101.0223,-73.55469)" x1="145.81898" y1="537.13806" x2="193.42752" y2="541.28821"/>
    <linearGradient inkscape:collect="always" xlink:href="#linearGradient10076" id="linearGradient9181" gradientUnits="userSpaceOnUse" gradientTransform="matrix(0.148672,0.109627,-1.140792,1.175815,101.0223,-73.55469)" x1="666.22595" y1="107.83209" x2="692.38379" y2="17.732885"/>
    <linearGradient inkscape:collect="always" xlink:href="#linearGradient10076" id="linearGradient9184" gradientUnits="userSpaceOnUse" gradientTransform="matrix(0.669242,0.493483,-0.253427,0.261207,101.0223,-73.55469)" x1="151.10228" y1="697.50122" x2="177.23729" y2="685.19318"/>
    <linearGradient inkscape:collect="always" xlink:href="#linearGradient10076" id="linearGradient9196" gradientUnits="userSpaceOnUse" gradientTransform="matrix(0.758546,0.559334,-0.223591,0.230455,101.0223,-73.55469)" x1="130.54056" y1="786.66321" x2="130.54056" y2="822.54553"/>
    <linearGradient inkscape:collect="always" xlink:href="#linearGradient10076" id="linearGradient9200" gradientUnits="userSpaceOnUse" gradientTransform="matrix(0.148672,0.109627,-1.140792,1.175815,101.0223,-73.55469)" x1="676.04828" y1="103.76309" x2="571.41693" y2="34.008873"/>
    <linearGradient inkscape:collect="always" xlink:href="#linearGradient10076" id="linearGradient12735" gradientUnits="userSpaceOnUse" gradientTransform="matrix(0.148672,0.109627,-1.140792,1.175815,101.0223,-73.55469)" x1="676.04828" y1="103.76309" x2="571.41693" y2="34.008873"/>
    <linearGradient inkscape:collect="always" xlink:href="#linearGradient10076" id="linearGradient12737" gradientUnits="userSpaceOnUse" gradientTransform="matrix(0.758546,0.559334,-0.223591,0.230455,101.0223,-73.55469)" x1="130.54056" y1="786.66321" x2="130.54056" y2="822.54553"/>
    <linearGradient inkscape:collect="always" xlink:href="#linearGradient10076" id="linearGradient12739" gradientUnits="userSpaceOnUse" gradientTransform="matrix(0.669242,0.493483,-0.253427,0.261207,101.0223,-73.55469)" x1="151.10228" y1="697.50122" x2="177.23729" y2="685.19318"/>
    <linearGradient inkscape:collect="always" xlink:href="#linearGradient10076" id="linearGradient12741" gradientUnits="userSpaceOnUse" gradientTransform="matrix(0.148672,0.109627,-1.140792,1.175815,101.0223,-73.55469)" x1="666.22595" y1="107.83209" x2="692.38379" y2="17.732885"/>
    <linearGradient inkscape:collect="always" xlink:href="#linearGradient10076" id="linearGradient12743" gradientUnits="userSpaceOnUse" gradientTransform="matrix(0.675799,0.498318,-0.250968,0.258673,101.0223,-73.55469)" x1="145.81898" y1="537.13806" x2="193.42752" y2="541.28821"/>
    <linearGradient inkscape:collect="always" xlink:href="#linearGradient10076" id="linearGradient12745" gradientUnits="userSpaceOnUse" gradientTransform="matrix(0.673548,0.496659,-0.251806,0.259537,101.0223,-73.55469)" x1="143.7982" y1="521.99512" x2="106.52049" y2="522.7182"/>
    <linearGradient inkscape:collect="always" xlink:href="#linearGradient10076" id="linearGradient12747" gradientUnits="userSpaceOnUse" gradientTransform="matrix(0.654996,0.482979,-0.258939,0.266888,101.0223,-73.55469)" x1="147.87256" y1="687.35699" x2="118.72225" y2="673.50146"/>
    <linearGradient inkscape:collect="always" xlink:href="#linearGradient10076" id="linearGradient12750" gradientUnits="userSpaceOnUse" gradientTransform="matrix(0.654996,0.482979,-0.258939,0.266888,101.0223,-73.55469)" x1="147.87256" y1="687.35699" x2="118.72225" y2="673.50146"/>
    <linearGradient inkscape:collect="always" xlink:href="#linearGradient10076" id="linearGradient12753" gradientUnits="userSpaceOnUse" gradientTransform="matrix(0.673548,0.496659,-0.251806,0.259537,101.0223,-73.55469)" x1="143.7982" y1="521.99512" x2="106.52049" y2="522.7182"/>
    <linearGradient inkscape:collect="always" xlink:href="#linearGradient10076" id="linearGradient12756" gradientUnits="userSpaceOnUse" gradientTransform="matrix(0.675799,0.498318,-0.250968,0.258673,101.0223,-73.55469)" x1="145.81898" y1="537.13806" x2="193.42752" y2="541.28821"/>
    <linearGradient inkscape:collect="always" xlink:href="#linearGradient10076" id="linearGradient12760" gradientUnits="userSpaceOnUse" gradientTransform="matrix(0.148672,0.109627,-1.140792,1.175815,101.0223,-73.55469)" x1="666.22595" y1="107.83209" x2="692.38379" y2="17.732885"/>
    <linearGradient inkscape:collect="always" xlink:href="#linearGradient10076" id="linearGradient12763" gradientUnits="userSpaceOnUse" gradientTransform="matrix(0.669242,0.493483,-0.253427,0.261207,101.0223,-73.55469)" x1="151.10228" y1="697.50122" x2="177.23729" y2="685.19318"/>
    <linearGradient inkscape:collect="always" xlink:href="#linearGradient10076" id="linearGradient12775" gradientUnits="userSpaceOnUse" gradientTransform="matrix(0.758546,0.559334,-0.223591,0.230455,101.0223,-73.55469)" x1="130.54056" y1="786.66321" x2="130.54056" y2="822.54553"/>
    <linearGradient inkscape:collect="always" xlink:href="#linearGradient10076" id="linearGradient12779" gradientUnits="userSpaceOnUse" gradientTransform="matrix(0.148672,0.109627,-1.140792,1.175815,101.0223,-73.55469)" x1="676.04828" y1="103.76309" x2="571.41693" y2="34.008873"/>
  </defs>
  <sodipodi:namedview bordercolor="#666666" borderopacity="1.0" id="base" inkscape:cx="135.95827" inkscape:cy="120.51008" inkscape:pageopacity="0.0" inkscape:pageshadow="2" inkscape:window-height="696" inkscape:window-width="909" inkscape:window-x="191" inkscape:window-y="32" inkscape:zoom="2.8284271" pagecolor="#ffffff" showgrid="false" inkscape:current-layer="svg1"/>
  <path style="fill:black;fill-opacity:1;fill-rule:evenodd;stroke:black;stroke-width:0.42759562pt;stroke-linecap:butt;stroke-linejoin:miter;stroke-opacity:1" sodipodi:nodetypes="cccccc" id="path913" d="M 159.66366,12.641215 L 57.096105,127.23909 L 81.755223,144.71012 L 196.2129,35.257386 L 199.87505,0.56878671 L 159.66366,12.641215 z "/>
  <path style="fill:url(#linearGradient12760);fill-opacity:1;fill-rule:evenodd;stroke:none;stroke-width:1pt;stroke-linecap:butt;stroke-linejoin:miter;stroke-opacity:1" sodipodi:nodetypes="ccccc" id="path2184" d="M 194.03472,36.6456 L 81.32118,143.48592 L 69.748079,134.95218 L 199.56514,2.0471164 L 194.03472,36.6456 z "/>
  <g id="g12781">
    <path d="M 161.14276,12.391821 L 58.987123,127.0173 L 70.560225,135.55104 L 199.3621,1.8974003 L 161.14276,12.391821 z " id="path1556" sodipodi:nodetypes="ccccc" style="fill:url(#linearGradient12779);fill-opacity:1;fill-rule:evenodd;stroke:none;stroke-width:1pt;stroke-linecap:butt;stroke-linejoin:miter;stroke-opacity:1"/>
    <path d="M 12.358672,171.53227 L 6.7823035,182.81297 L 26.93578,197.36652 L 37.504306,190.90663 L 12.358672,171.53227 z " id="path2830" sodipodi:nodetypes="ccccc" style="fill:black;fill-opacity:1;fill-rule:evenodd;stroke:black;stroke-width:0.42759562pt;stroke-linecap:butt;stroke-linejoin:miter;stroke-opacity:1"/>
    <path d="M 12.29706,172.44839 L 8.3833472,182.22603 L 26.660744,196.05513 L 37.071643,191.06836 L 12.29706,172.44839 z " id="path1553" sodipodi:nodetypes="ccccc" style="fill:url(#linearGradient12775);fill-opacity:1;fill-rule:evenodd;stroke:none;stroke-width:0.78084502pt;stroke-linecap:butt;stroke-linejoin:miter;stroke-opacity:1"/>
    <path d="M 58.041566,127.2752 L 48.469118,138.31881 L 46.615526,138.96101 L 44.782512,140.5457 L 45.166144,142.12769 L 42.603481,145.04312 L 40.437162,145.60122 L 38.855925,147.30715 L 39.089909,148.8625 L 36.557634,152.07402 L 36.54364,152.0637 L 34.391294,152.22471 L 32.755678,154.06284 L 33.229603,155.75164 L 30.577216,158.33701 L 28.226213,158.93122 L 26.789254,160.33615 L 27.263179,162.02494 L 25.14033,164.7078 L 22.952648,164.90716 L 21.06005,166.70556 L 21.772476,168.37698 L 21.826293,168.39574 L 21.449696,168.80864 L 28.493882,174.1912 L 19.523805,171.51117 L 17.239022,171.96098 L 15.735843,173.51031 L 16.209768,175.19911 L 38.641433,181.96675 L 40.22702,183.17778 L 40.870483,182.56405 L 43.039731,182.43317 L 44.645561,180.70189 L 44.736806,179.28335 L 47.740883,175.95282 L 49.949561,175.88798 L 51.285652,174.13011 L 51.337808,172.72134 L 53.934471,170.01443 L 56.403996,169.8957 L 58.152318,168.39832 L 57.843698,166.43054 L 60.482679,164.0913 L 62.908967,163.51074 L 64.339286,162.03651 L 64.24602,160.22753 L 67.32492,157.45768 L 69.549059,156.93895 L 71.052239,155.38963 L 71.107937,153.88209 L 73.930197,150.8151 L 76.343079,150.48067 L 77.846259,148.93134 L 77.670453,147.23218 L 80.932952,144.09219 L 58.041566,127.2752 z " id="path2832" sodipodi:nodetypes="ccccccccccccccccccccccccccccccccccccccccccccccccccccccccc" style="fill:black;fill-opacity:1;fill-rule:evenodd;stroke:black;stroke-width:0.52566066pt;stroke-linecap:butt;stroke-linejoin:miter;stroke-opacity:1"/>
    <path d="M 58.782996,127.40719 L 21.319773,168.89244 L 40.104567,183.27553 L 80.816378,144.18571 L 58.782996,127.40719 z " id="path1545" sodipodi:nodetypes="ccccc" style="fill:#303030;fill-opacity:1;fill-rule:evenodd;stroke:none;stroke-width:0.95992441pt;stroke-linecap:butt;stroke-linejoin:miter;stroke-opacity:1"/>
    <path d="M 45.457172,142.29249 L 73.781329,150.91504 L 76.21854,150.57949 L 77.726318,149.02542 L 77.553873,147.29874 L 48.77119,138.60465 L 46.48785,139.05367 L 44.980072,140.60774 L 45.457172,142.29249 z " id="path2206" sodipodi:nodetypes="ccccccccc" style="fill:#000090;fill-opacity:1;fill-rule:evenodd;stroke:black;stroke-width:0.42759562pt;stroke-linecap:butt;stroke-linejoin:miter;stroke-opacity:1"/>
    <path d="M 16.086388,175.28556 L 40.582283,182.68478 L 43.019491,182.34923 L 44.527276,180.79515 L 44.354831,179.06847 L 19.400407,171.59774 L 17.11707,172.04675 L 15.609281,173.60083 L 16.086388,175.28556 z " id="path2208" sodipodi:nodetypes="ccccccccc" style="fill:#000090;fill-opacity:1;fill-rule:evenodd;stroke:black;stroke-width:0.42759562pt;stroke-linecap:butt;stroke-linejoin:miter;stroke-opacity:1"/>
    <path d="M 8.212217,157.32515 L 0.43358149,169.03031 L 43.228111,200.06956 L 53.566739,191.717 L 8.212217,157.32515 z " id="path1550" sodipodi:nodetypes="ccccc" style="fill:black;fill-opacity:1;fill-rule:evenodd;stroke:black;stroke-width:0.42759562pt;stroke-linecap:butt;stroke-linejoin:miter;stroke-opacity:1"/>
    <path d="M 21.652801,168.46003 L 47.219617,176.11574 L 49.656828,175.78018 L 51.164606,174.22611 L 50.992169,172.49943 L 24.966815,164.7722 L 22.683475,165.22121 L 21.175693,166.77529 L 21.652801,168.46003 z " id="path2207" sodipodi:nodetypes="ccccccccc" style="fill:#000090;fill-opacity:1;fill-rule:evenodd;stroke:black;stroke-width:0.42759562pt;stroke-linecap:butt;stroke-linejoin:miter;stroke-opacity:1"/>
    <path d="M 27.148455,162.11549 L 53.940079,170.14116 L 56.377291,169.80561 L 57.885065,168.25154 L 57.712619,166.52486 L 30.462478,158.42766 L 28.179142,158.87668 L 26.671361,160.43075 L 27.148455,162.11549 z " id="path2203" style="fill:#000090;fill-opacity:1;fill-rule:evenodd;stroke:black;stroke-width:0.42759562pt;stroke-linecap:butt;stroke-linejoin:miter;stroke-opacity:1"/>
    <path d="M 33.102647,155.84247 L 60.352788,163.93967 L 62.789999,163.60411 L 64.29778,162.05004 L 64.125339,160.32336 L 36.41667,152.15464 L 34.13333,152.60367 L 32.625548,154.15774 L 33.102647,155.84247 z " id="path2204" sodipodi:nodetypes="ccccccccc" style="fill:#000090;fill-opacity:1;fill-rule:evenodd;stroke:black;stroke-width:0.42759562pt;stroke-linecap:butt;stroke-linejoin:miter;stroke-opacity:1"/>
    <path d="M 39.278359,148.93304 L 66.990125,157.37062 L 69.427332,157.03507 L 70.93511,155.481 L 70.762673,153.75432 L 42.592381,145.24521 L 40.309042,145.69424 L 38.801264,147.2483 L 39.278359,148.93304 z " id="path2205" sodipodi:nodetypes="ccccccccc" style="fill:#000090;fill-opacity:1;fill-rule:evenodd;stroke:black;stroke-width:0.42759562pt;stroke-linecap:butt;stroke-linejoin:miter;stroke-opacity:1"/>
    <path d="M 52.982905,191.7204 L 43.002591,199.13523 L 21.933778,184.29429 L 29.418102,175.15915 L 52.982905,191.7204 z " id="path2193" sodipodi:nodetypes="ccccc" style="fill:url(#linearGradient12763);fill-opacity:1;fill-rule:evenodd;stroke:none;stroke-width:1pt;stroke-linecap:butt;stroke-linejoin:miter;stroke-opacity:1"/>
    <path d="M 40.799406,113.8331 L 29.364394,126.83198 L 62.047447,142.35075 L 86.233217,167.23408 L 98.265238,155.30322 L 69.243683,135.29257 L 40.799406,113.8331 z " id="path1543" sodipodi:nodetypes="ccccccc" style="fill:black;fill-opacity:1;fill-rule:evenodd;stroke:black;stroke-width:0.42759562pt;stroke-linecap:butt;stroke-linejoin:miter;stroke-opacity:1"/>
    <path d="M 97.059732,155.80349 L 86.308103,166.16722 L 62.764318,142.14658 L 69.098723,135.3675 L 97.059732,155.80349 z " id="path2189" sodipodi:nodetypes="ccccc" style="fill:url(#linearGradient12756);fill-opacity:1;fill-rule:evenodd;stroke:none;stroke-width:1pt;stroke-linecap:butt;stroke-linejoin:miter;stroke-opacity:1"/>
    <path d="M 41.027685,115.01439 L 31.088207,125.97698 L 62.943613,142.29449 L 69.245722,135.46996 L 41.027685,115.01439 z " id="path2187" sodipodi:nodetypes="ccccc" style="fill:url(#linearGradient12753);fill-opacity:1;fill-rule:evenodd;stroke:none;stroke-width:1pt;stroke-linecap:butt;stroke-linejoin:miter;stroke-opacity:1"/>
    <path d="M 8.5137549,158.5781 L 1.7820225,168.38838 L 22.232755,184.55265 L 29.684518,175.34176 L 8.5137549,158.5781 z " id="path2191" sodipodi:nodetypes="ccccc" style="fill:url(#linearGradient12750);fill-opacity:1;fill-rule:evenodd;stroke:none;stroke-width:1pt;stroke-linecap:butt;stroke-linejoin:miter;stroke-opacity:1"/>
  </g>
  <path style="fill:black;fill-opacity:1;fill-rule:evenodd;stroke:none;stroke-width:3.75;stroke-linecap:butt;stroke-linejoin:round;stroke-miterlimit:4;stroke-opacity:1" sodipodi:nodetypes="ccccc" id="path2195" d="M 198.46581,2.5670343 L 69.1318,134.63459 L 70.811027,135.87282 L 198.62732,2.8953993 L 198.46581,2.5670343 z "/>
  <path d="M 40.645438,12.641215 L 143.213,127.23909 L 118.55388,144.71012 L 4.0961951,35.257386 L 0.43404679,0.56878671 L 40.645438,12.641215 z " id="path1342" sodipodi:nodetypes="cccccc" style="fill:black;fill-opacity:1;fill-rule:evenodd;stroke:black;stroke-width:0.42759562pt;stroke-linecap:butt;stroke-linejoin:miter;stroke-opacity:1"/>
  <path d="M 39.166341,12.391821 L 141.32198,127.0173 L 129.74888,135.55104 L 0.94699917,1.8974003 L 39.166341,12.391821 z " id="path1344" sodipodi:nodetypes="ccccc" style="fill:url(#linearGradient2167);fill-opacity:1.0;fill-rule:evenodd;stroke:none;stroke-width:1pt;stroke-linecap:butt;stroke-linejoin:miter;stroke-opacity:1"/>
  <path d="M 187.95043,171.53227 L 193.5268,182.81297 L 173.37332,197.36652 L 162.80479,190.90663 L 187.95043,171.53227 z " id="path1346" sodipodi:nodetypes="ccccc" style="fill:black;fill-opacity:1;fill-rule:evenodd;stroke:black;stroke-width:0.42759562pt;stroke-linecap:butt;stroke-linejoin:miter;stroke-opacity:1"/>
  <path d="M 188.01204,172.44839 L 191.92575,182.22603 L 173.64836,196.05513 L 163.23746,191.06836 L 188.01204,172.44839 z " id="path1348" sodipodi:nodetypes="ccccc" style="fill:url(#linearGradient2163);fill-opacity:1.0;fill-rule:evenodd;stroke:none;stroke-width:0.78084502pt;stroke-linecap:butt;stroke-linejoin:miter;stroke-opacity:1"/>
  <path d="M 142.26753,127.2752 L 151.83998,138.31881 L 153.69357,138.96101 L 155.52659,140.5457 L 155.14296,142.12769 L 157.70562,145.04312 L 159.87194,145.60122 L 161.45318,147.30715 L 161.21919,148.8625 L 163.75147,152.07402 L 163.76546,152.0637 L 165.91781,152.22471 L 167.55342,154.06284 L 167.0795,155.75164 L 169.73188,158.33701 L 172.08289,158.93122 L 173.51985,160.33615 L 173.04592,162.02494 L 175.16877,164.7078 L 177.35645,164.90716 L 179.24905,166.70556 L 178.53662,168.37698 L 178.48281,168.39574 L 178.8594,168.80864 L 171.81522,174.1912 L 180.78529,171.51117 L 183.07008,171.96098 L 184.57326,173.51031 L 184.09933,175.19911 L 161.66767,181.96675 L 160.08208,183.17778 L 159.43862,182.56405 L 157.26937,182.43317 L 155.66354,180.70189 L 155.57229,179.28335 L 152.56822,175.95282 L 150.35954,175.88798 L 149.02345,174.13011 L 148.97129,172.72134 L 146.37463,170.01443 L 143.9051,169.8957 L 142.15678,168.39832 L 142.4654,166.43054 L 139.82642,164.0913 L 137.40013,163.51074 L 135.96981,162.03651 L 136.06308,160.22753 L 132.98418,157.45768 L 130.76004,156.93895 L 129.25686,155.38963 L 129.20116,153.88209 L 126.3789,150.8151 L 123.96602,150.48067 L 122.46284,148.93134 L 122.63865,147.23218 L 119.37615,144.09219 L 142.26753,127.2752 z " id="path1350" sodipodi:nodetypes="ccccccccccccccccccccccccccccccccccccccccccccccccccccccccc" style="fill:black;fill-opacity:1;fill-rule:evenodd;stroke:black;stroke-width:0.52566066pt;stroke-linecap:butt;stroke-linejoin:miter;stroke-opacity:1"/>
  <path d="M 141.5261,127.40719 L 178.98933,168.89244 L 160.20453,183.27553 L 119.49272,144.18571 L 141.5261,127.40719 z " id="path1352" sodipodi:nodetypes="ccccc" style="fill:#303030;fill-opacity:1;fill-rule:evenodd;stroke:none;stroke-width:0.95992441pt;stroke-linecap:butt;stroke-linejoin:miter;stroke-opacity:1"/>
  <path d="M 154.85193,142.29249 L 126.52777,150.91504 L 124.09056,150.57949 L 122.58278,149.02542 L 122.75523,147.29874 L 151.53791,138.60465 L 153.82125,139.05367 L 155.32903,140.60774 L 154.85193,142.29249 z " id="path1354" sodipodi:nodetypes="ccccccccc" style="fill:#900000;fill-opacity:1;fill-rule:evenodd;stroke:black;stroke-width:0.42759562pt;stroke-linecap:butt;stroke-linejoin:miter;stroke-opacity:1"/>
  <path d="M 184.22271,175.28556 L 159.72682,182.68478 L 157.28961,182.34923 L 155.78182,180.79515 L 155.95427,179.06847 L 180.90869,171.59774 L 183.19203,172.04675 L 184.69982,173.60083 L 184.22271,175.28556 z " id="path1356" sodipodi:nodetypes="ccccccccc" style="fill:#900000;fill-opacity:1;fill-rule:evenodd;stroke:black;stroke-width:0.42759562pt;stroke-linecap:butt;stroke-linejoin:miter;stroke-opacity:1"/>
  <path d="M 192.09688,157.32515 L 199.87552,169.03031 L 157.08099,200.06956 L 146.74236,191.717 L 192.09688,157.32515 z " id="path1358" sodipodi:nodetypes="ccccc" style="fill:black;fill-opacity:1;fill-rule:evenodd;stroke:black;stroke-width:0.42759562pt;stroke-linecap:butt;stroke-linejoin:miter;stroke-opacity:1"/>
  <path d="M 178.6563,168.46003 L 153.08948,176.11574 L 150.65227,175.78018 L 149.14449,174.22611 L 149.31693,172.49943 L 175.34228,164.7722 L 177.62562,165.22121 L 179.13341,166.77529 L 178.6563,168.46003 z " id="path1360" sodipodi:nodetypes="ccccccccc" style="fill:#900000;fill-opacity:1;fill-rule:evenodd;stroke:black;stroke-width:0.42759562pt;stroke-linecap:butt;stroke-linejoin:miter;stroke-opacity:1"/>
  <path d="M 173.16064,162.11549 L 146.36902,170.14116 L 143.93181,169.80561 L 142.42404,168.25154 L 142.59648,166.52486 L 169.84662,158.42766 L 172.12996,158.87668 L 173.63774,160.43075 L 173.16064,162.11549 z " id="path1362" style="fill:#900000;fill-opacity:1;fill-rule:evenodd;stroke:black;stroke-width:0.42759562pt;stroke-linecap:butt;stroke-linejoin:miter;stroke-opacity:1"/>
  <path d="M 167.20645,155.84247 L 139.95631,163.93967 L 137.5191,163.60411 L 136.01132,162.05004 L 136.18376,160.32336 L 163.89243,152.15464 L 166.17577,152.60367 L 167.68355,154.15774 L 167.20645,155.84247 z " id="path1364" sodipodi:nodetypes="ccccccccc" style="fill:#900000;fill-opacity:1;fill-rule:evenodd;stroke:black;stroke-width:0.42759562pt;stroke-linecap:butt;stroke-linejoin:miter;stroke-opacity:1"/>
  <path d="M 161.03074,148.93304 L 133.31898,157.37062 L 130.88177,157.03507 L 129.37399,155.481 L 129.54643,153.75432 L 157.71672,145.24521 L 160.00006,145.69424 L 161.50784,147.2483 L 161.03074,148.93304 z " id="path1366" sodipodi:nodetypes="ccccccccc" style="fill:#900000;fill-opacity:1;fill-rule:evenodd;stroke:black;stroke-width:0.42759562pt;stroke-linecap:butt;stroke-linejoin:miter;stroke-opacity:1"/>
  <path d="M 147.32619,191.7204 L 157.30651,199.13523 L 178.37532,184.29429 L 170.891,175.15915 L 147.32619,191.7204 z " id="path1368" sodipodi:nodetypes="ccccc" style="fill:url(#linearGradient2151);fill-opacity:1.0;fill-rule:evenodd;stroke:none;stroke-width:1pt;stroke-linecap:butt;stroke-linejoin:miter;stroke-opacity:1"/>
  <path d="M 6.2743763,36.6456 L 118.98792,143.48592 L 130.56102,134.95218 L 0.74396042,2.0471164 L 6.2743763,36.6456 z " id="path1370" sodipodi:nodetypes="ccccc" style="fill:url(#linearGradient2148);fill-opacity:1.0;fill-rule:evenodd;stroke:none;stroke-width:1pt;stroke-linecap:butt;stroke-linejoin:miter;stroke-opacity:1"/>
  <path d="M 159.50969,113.8331 L 170.94471,126.83198 L 138.26165,142.35075 L 114.07588,167.23408 L 102.04386,155.30322 L 131.06542,135.29257 L 159.50969,113.8331 z " id="path1374" sodipodi:nodetypes="ccccccc" style="fill:black;fill-opacity:1;fill-rule:evenodd;stroke:black;stroke-width:0.42759562pt;stroke-linecap:butt;stroke-linejoin:miter;stroke-opacity:1"/>
  <path d="M 103.24937,155.80349 L 114.001,166.16722 L 137.54478,142.14658 L 131.21038,135.3675 L 103.24937,155.80349 z " id="path1376" sodipodi:nodetypes="ccccc" style="fill:url(#linearGradient2141);fill-opacity:1.0;fill-rule:evenodd;stroke:none;stroke-width:1pt;stroke-linecap:butt;stroke-linejoin:miter;stroke-opacity:1"/>
  <path d="M 159.28141,115.01439 L 169.22089,125.97698 L 137.36549,142.29449 L 131.06338,135.46996 L 159.28141,115.01439 z " id="path1378" sodipodi:nodetypes="ccccc" style="fill:url(#linearGradient2138);fill-opacity:1.0;fill-rule:evenodd;stroke:none;stroke-width:1pt;stroke-linecap:butt;stroke-linejoin:miter;stroke-opacity:1"/>
  <path d="M 191.79535,158.5781 L 198.52708,168.38838 L 178.07635,184.55265 L 170.62458,175.34176 L 191.79535,158.5781 z " id="path1380" sodipodi:nodetypes="ccccc" style="fill:url(#linearGradient2135);fill-opacity:1.0;fill-rule:evenodd;stroke:none;stroke-width:1pt;stroke-linecap:butt;stroke-linejoin:miter;stroke-opacity:1"/>
  <path d="M 1.8432947,2.5670343 L 131.1773,134.63459 L 129.49807,135.87282 L 1.6817841,2.8953993 L 1.8432947,2.5670343 z " id="path1382" sodipodi:nodetypes="ccccc" style="fill:black;fill-opacity:1;fill-rule:evenodd;stroke:none;stroke-width:3.75;stroke-linecap:butt;stroke-linejoin:round;stroke-miterlimit:4;stroke-opacity:1"/>
</svg>